<svg width="22" height="24" viewBox="0 0 22 24" fill="none" xmlns="http://www.w3.org/2000/svg">
<g clip-path="url(#clip0_76_24)">
<path d="M2.13891 9.04L3.05558 8.45333V10.6667H18.9445V8.47333L19.8489 9.04C19.9886 9.1197 20.1511 9.13745 20.3024 9.08955C20.4538 9.04164 20.5824 8.93177 20.6613 8.78291C20.7401 8.63404 20.7632 8.45768 20.7257 8.29067C20.6882 8.12366 20.593 7.97891 20.46 7.88667L11 1.94667L1.5278 7.88667C1.45477 7.92834 1.39022 7.98571 1.33804 8.0553C1.28585 8.1249 1.24711 8.20529 1.22415 8.29164C1.20119 8.37799 1.19447 8.46852 1.20441 8.55778C1.21435 8.64703 1.24073 8.73318 1.28198 8.81102C1.32323 8.88886 1.37848 8.9568 1.44442 9.01074C1.51036 9.06469 1.58562 9.10352 1.66567 9.12491C1.74573 9.14631 1.82892 9.14981 1.91025 9.13522C1.99157 9.12062 2.06935 9.08824 2.13891 9.04ZM10.9084 4.74C10.9827 4.69319 11.067 4.66855 11.1528 4.66855C11.2386 4.66855 11.3229 4.69319 11.3972 4.74L15.5039 7.33333H13.5361L11.1528 5.84L8.76946 7.33333H6.8078L10.9084 4.74Z" fill="#9E9E9E"/>
<path d="M20.075 18H19.5556V17.4333C19.5556 17.23 19.4815 17.035 19.3497 16.8912C19.2179 16.7474 19.0392 16.6667 18.8528 16.6667H17.1111V11.7533H14.6667V16.6667H12.2222V11.7533H9.77778V16.6667H7.33334V11.7533H4.8889V16.6667H3.14723C2.96084 16.6667 2.78209 16.7474 2.65029 16.8912C2.51849 17.035 2.44445 17.23 2.44445 17.4333V18H1.92501C1.73862 18 1.55986 18.0808 1.42807 18.2246C1.29627 18.3683 1.22223 18.5633 1.22223 18.7667V20.6667H20.7778V18.7667C20.7778 18.5633 20.7037 18.3683 20.5719 18.2246C20.4401 18.0808 20.2614 18 20.075 18Z" fill="#9E9E9E"/>
</g>
<defs>
<clipPath id="clip0_76_24">
<rect width="22" height="24" fill="white"/>
</clipPath>
</defs>
</svg>
