<svg width="10" height="10" viewBox="0 0 10 10" fill="none" xmlns="http://www.w3.org/2000/svg">
<path d="M5 0C4.01109 0 3.0444 0.293245 2.22215 0.842652C1.3999 1.39206 0.759043 2.17295 0.380605 3.08658C0.00216642 4.00021 -0.0968502 5.00555 0.0960758 5.97545C0.289002 6.94536 0.765206 7.83627 1.46447 8.53553C2.16373 9.23479 3.05465 9.711 4.02455 9.90392C4.99445 10.0969 5.99979 9.99783 6.91342 9.6194C7.82705 9.24096 8.60794 8.60009 9.15735 7.77785C9.70676 6.9556 10 5.98891 10 5C9.9986 3.67435 9.47137 2.40339 8.53399 1.46601C7.59661 0.528633 6.32565 0.00139991 5 0ZM7.69231 5.38461H5C4.89799 5.38461 4.80017 5.34409 4.72804 5.27196C4.65591 5.19983 4.61539 5.10201 4.61539 5V2.30769C4.61539 2.20569 4.65591 2.10786 4.72804 2.03573C4.80017 1.9636 4.89799 1.92308 5 1.92308C5.10201 1.92308 5.19984 1.9636 5.27197 2.03573C5.34409 2.10786 5.38462 2.20569 5.38462 2.30769V4.61538H7.69231C7.79431 4.61538 7.89214 4.65591 7.96427 4.72803C8.0364 4.80016 8.07692 4.89799 8.07692 5C8.07692 5.10201 8.0364 5.19983 7.96427 5.27196C7.89214 5.34409 7.79431 5.38461 7.69231 5.38461Z" fill="#9E9E9E"/>
</svg>
