<svg width="24" height="24" viewBox="0 0 24 24" fill="none" xmlns="http://www.w3.org/2000/svg">
<path opacity="0.5" fill-rule="evenodd" clip-rule="evenodd" d="M12 20.75C11.8011 20.75 11.6103 20.671 11.4697 20.5303C11.329 20.3897 11.25 20.1989 11.25 20L11.25 10.75L12.75 10.75L12.75 20C12.75 20.1989 12.671 20.3897 12.5303 20.5303C12.3897 20.671 12.1989 20.75 12 20.75Z" fill="white"/>
<path d="M18 10.75C18.1482 10.7499 18.2931 10.7058 18.4163 10.6234C18.5395 10.541 18.6356 10.4239 18.6923 10.2869C18.749 10.15 18.7638 9.99926 18.735 9.85386C18.7061 9.70846 18.6347 9.57489 18.53 9.47L12.53 3.47C12.3894 3.32955 12.1987 3.25066 12 3.25066C11.8012 3.25066 11.6106 3.32955 11.47 3.47L5.46999 9.47C5.36523 9.57489 5.29391 9.70846 5.26502 9.85386C5.23614 9.99926 5.25099 10.15 5.3077 10.2869C5.36441 10.4239 5.46044 10.541 5.58366 10.6234C5.70687 10.7058 5.85175 10.7499 5.99999 10.75L18 10.75Z" fill="white"/>
</svg>
