<svg width="26" height="26" viewBox="0 0 26 26" fill="none" xmlns="http://www.w3.org/2000/svg">
<g clip-path="url(#clip0_72_31)">
<path d="M25.2606 10.6568C25.4122 11.5294 25.4878 12.4134 25.4865 13.2991C25.4865 17.2543 24.0728 20.5986 21.6125 22.8622H21.6158C19.4643 24.8496 16.5067 26.0001 13 26.0001C9.55219 26.0001 6.24558 24.6304 3.80761 22.1925C1.36964 19.7545 0 16.4479 0 13.0001C0 9.55225 1.36964 6.24565 3.80761 3.80768C6.24558 1.3697 9.55219 6.43587e-05 13 6.43587e-05C16.2271 -0.0377305 19.3437 1.17467 21.697 3.38331L17.9855 7.09481C16.6439 5.8159 14.8533 5.11555 13 5.14481C9.60863 5.14481 6.7275 7.43281 5.7005 10.5138C5.15597 12.1283 5.15597 13.8767 5.7005 15.4912H5.70537C6.73725 18.5673 9.6135 20.8553 13.0049 20.8553C14.7566 20.8553 16.2614 20.4068 17.4281 19.6138H17.4233C18.1007 19.165 18.6802 18.5836 19.1268 17.9046C19.5734 17.2257 19.8778 16.4633 20.0216 15.6634H13V10.6584L25.2606 10.6568Z" fill="white"/>
</g>
<defs>
<clipPath id="clip0_72_31">
<rect width="26" height="26" fill="white"/>
</clipPath>
</defs>
</svg>
