<svg width="20" height="17" viewBox="0 0 20 17" fill="none" xmlns="http://www.w3.org/2000/svg">
<path d="M11 10C12.0609 10 13.0783 10.4214 13.8284 11.1716C14.5786 11.9217 15 12.9391 15 14V15.5C15 15.8978 14.842 16.2794 14.5607 16.5607C14.2794 16.842 13.8978 17 13.5 17H1.5C1.10218 17 0.720644 16.842 0.43934 16.5607C0.158035 16.2794 0 15.8978 0 15.5V14C0 12.9391 0.421427 11.9217 1.17157 11.1716C1.92172 10.4214 2.93913 10 4 10H11ZM17 10C17.7956 10 18.5587 10.3161 19.1213 10.8787C19.6839 11.4413 20 12.2044 20 13V14.5C20 14.8978 19.842 15.2794 19.5607 15.5607C19.2794 15.842 18.8978 16 18.5 16H17V14C17.0006 13.2237 16.8202 12.4579 16.473 11.7635C16.1258 11.0691 15.6214 10.4653 15 10H17ZM7.5 0C8.69347 0 9.83807 0.474106 10.682 1.31802C11.5259 2.16193 12 3.30653 12 4.5C12 5.69347 11.5259 6.83807 10.682 7.68198C9.83807 8.52589 8.69347 9 7.5 9C6.30653 9 5.16193 8.52589 4.31802 7.68198C3.47411 6.83807 3 5.69347 3 4.5C3 3.30653 3.47411 2.16193 4.31802 1.31802C5.16193 0.474106 6.30653 0 7.5 0ZM16 3C16.7956 3 17.5587 3.31607 18.1213 3.87868C18.6839 4.44129 19 5.20435 19 6C19 6.79565 18.6839 7.55871 18.1213 8.12132C17.5587 8.68393 16.7956 9 16 9C15.2044 9 14.4413 8.68393 13.8787 8.12132C13.3161 7.55871 13 6.79565 13 6C13 5.20435 13.3161 4.44129 13.8787 3.87868C14.4413 3.31607 15.2044 3 16 3Z" fill="white"/>
</svg>
