<svg width="24" height="24" viewBox="0 0 24 24" fill="none" xmlns="http://www.w3.org/2000/svg">
<path opacity="0.5" fill-rule="evenodd" clip-rule="evenodd" d="M12 3.25C12.1989 3.25 12.3897 3.32902 12.5303 3.46967C12.671 3.61032 12.75 3.80109 12.75 4V13.25H11.25V4C11.25 3.80109 11.329 3.61032 11.4697 3.46967C11.6103 3.32902 11.8011 3.25 12 3.25Z" fill="white"/>
<path d="M6.00001 13.25C5.85177 13.2501 5.7069 13.2942 5.58368 13.3766C5.46046 13.459 5.36444 13.5761 5.30773 13.7131C5.25101 13.85 5.23616 14.0007 5.26505 14.1461C5.29393 14.2915 5.36526 14.4251 5.47001 14.53L11.47 20.53C11.6106 20.6705 11.8013 20.7493 12 20.7493C12.1988 20.7493 12.3894 20.6705 12.53 20.53L18.53 14.53C18.6348 14.4251 18.7061 14.2915 18.735 14.1461C18.7639 14.0007 18.749 13.85 18.6923 13.7131C18.6356 13.5761 18.5396 13.459 18.4163 13.3766C18.2931 13.2942 18.1483 13.2501 18 13.25H6.00001Z" fill="white"/>
</svg>
