<svg width="16" height="18" viewBox="0 0 16 18" fill="none" xmlns="http://www.w3.org/2000/svg">
<path fill-rule="evenodd" clip-rule="evenodd" d="M2.28571 7.875V5.625C2.28571 4.13316 2.88775 2.70242 3.95939 1.64752C5.03103 0.592632 6.48448 0 8 0C9.51552 0 10.969 0.592632 12.0406 1.64752C13.1122 2.70242 13.7143 4.13316 13.7143 5.625V7.875C14.3205 7.875 14.9019 8.11205 15.3305 8.53401C15.7592 8.95597 16 9.52826 16 10.125V15.75C16 16.3467 15.7592 16.919 15.3305 17.341C14.9019 17.7629 14.3205 18 13.7143 18H2.28571C1.67951 18 1.09812 17.7629 0.66947 17.341C0.240816 16.919 0 16.3467 0 15.75V10.125C0 9.52826 0.240816 8.95597 0.66947 8.53401C1.09812 8.11205 1.67951 7.875 2.28571 7.875ZM11.4286 5.625V7.875H4.57143V5.625C4.57143 4.72989 4.93265 3.87145 5.57563 3.23851C6.21862 2.60558 7.09069 2.25 8 2.25C8.90931 2.25 9.78139 2.60558 10.4244 3.23851C11.0673 3.87145 11.4286 4.72989 11.4286 5.625Z" fill="white"/>
</svg>
