<svg width="27" height="23" viewBox="0 0 27 23" fill="none" xmlns="http://www.w3.org/2000/svg">
<path d="M5.1875 5.75C4.93886 5.75 4.7004 5.84877 4.52459 6.02459C4.34877 6.2004 4.25 6.43886 4.25 6.6875C4.25 6.93614 4.34877 7.1746 4.52459 7.35041C4.7004 7.52623 4.93886 7.625 5.1875 7.625H10.1875C10.4361 7.625 10.6746 7.52623 10.8504 7.35041C11.0262 7.1746 11.125 6.93614 11.125 6.6875C11.125 6.43886 11.0262 6.2004 10.8504 6.02459C10.6746 5.84877 10.4361 5.75 10.1875 5.75H5.1875Z" fill="#FF9900"/>
<path fill-rule="evenodd" clip-rule="evenodd" d="M24.485 7.005C24.4075 7 24.3225 7 24.235 7H20.7688C17.93 7 15.5 9.17 15.5 12C15.5 14.83 17.93 17 20.7688 17H24.235C24.3225 17 24.4075 17 24.485 16.995C25.6388 16.925 26.6588 16.0487 26.745 14.8237C26.75 14.7437 26.75 14.6575 26.75 14.5775V9.4225C26.75 9.3425 26.75 9.25625 26.745 9.17625C26.6588 7.95125 25.6388 7.07625 24.485 7.005ZM20.4638 13.3338C21.1938 13.3338 21.7862 12.7362 21.7862 12C21.7862 11.2625 21.1938 10.6662 20.4638 10.6662C19.7325 10.6662 19.1387 11.2638 19.1387 12C19.1387 12.7375 19.7325 13.3338 20.4638 13.3338Z" fill="#FF9900"/>
<path opacity="0.5" d="M24.425 7.0025C24.425 5.52625 24.37 3.9425 23.4275 2.80875C23.3354 2.69768 23.2382 2.5909 23.1362 2.48875C22.2 1.55375 21.0138 1.13875 19.5487 0.94125C18.1238 0.75 16.305 0.75 14.0075 0.75H11.3675C9.07 0.75 7.25 0.75 5.825 0.94125C4.36 1.13875 3.17375 1.55375 2.2375 2.48875C1.3025 3.425 0.8875 4.61125 0.69 6.07625C0.5 7.50125 0.5 9.32 0.5 11.6175V11.7575C0.5 14.055 0.5 15.875 0.69125 17.2987C0.88875 18.7638 1.30375 19.95 2.23875 20.8862C3.175 21.8212 4.36125 22.2362 5.82625 22.4338C7.25125 22.625 9.07 22.625 11.3675 22.625H14.0075C16.305 22.625 18.125 22.625 19.5487 22.4338C21.0138 22.2362 22.2 21.8212 23.1362 20.8862C23.3853 20.6364 23.6058 20.3597 23.7938 20.0612C24.3563 19.1612 24.4237 18.0588 24.4237 16.9987L24.2362 17H20.7687C17.93 17 15.5 14.83 15.5 12C15.5 9.17 17.93 7 20.7687 7H24.235C24.3 7 24.365 7 24.425 7.0025Z" fill="#FF9900"/>
</svg>
