<svg width="142" height="40" viewBox="0 0 142 40" fill="none" xmlns="http://www.w3.org/2000/svg">
<rect width="40" height="40" rx="11" fill="#34374B"/>
<path d="M13.1875 13.75C12.9389 13.75 12.7004 13.8488 12.5246 14.0246C12.3488 14.2004 12.25 14.4389 12.25 14.6875C12.25 14.9361 12.3488 15.1746 12.5246 15.3504C12.7004 15.5262 12.9389 15.625 13.1875 15.625H18.1875C18.4361 15.625 18.6746 15.5262 18.8504 15.3504C19.0262 15.1746 19.125 14.9361 19.125 14.6875C19.125 14.4389 19.0262 14.2004 18.8504 14.0246C18.6746 13.8488 18.4361 13.75 18.1875 13.75H13.1875Z" fill="#FF9900"/>
<path fill-rule="evenodd" clip-rule="evenodd" d="M32.485 15.005C32.4075 15 32.3225 15 32.235 15H28.7688C25.93 15 23.5 17.17 23.5 20C23.5 22.83 25.93 25 28.7688 25H32.235C32.3225 25 32.4075 25 32.485 24.995C33.6388 24.925 34.6588 24.0487 34.745 22.8237C34.75 22.7437 34.75 22.6575 34.75 22.5775V17.4225C34.75 17.3425 34.75 17.2563 34.745 17.1763C34.6588 15.9513 33.6388 15.0762 32.485 15.005ZM28.4638 21.3338C29.1938 21.3338 29.7862 20.7362 29.7862 20C29.7862 19.2625 29.1938 18.6662 28.4638 18.6662C27.7325 18.6662 27.1387 19.2638 27.1387 20C27.1387 20.7375 27.7325 21.3338 28.4638 21.3338Z" fill="#FF9900"/>
<path opacity="0.5" d="M32.425 15.0025C32.425 13.5262 32.37 11.9425 31.4275 10.8087C31.3354 10.6977 31.2382 10.5909 31.1362 10.4887C30.2 9.55375 29.0138 9.13875 27.5487 8.94125C26.1238 8.75 24.305 8.75 22.0075 8.75H19.3675C17.07 8.75 15.25 8.75 13.825 8.94125C12.36 9.13875 11.1738 9.55375 10.2375 10.4887C9.3025 11.425 8.8875 12.6113 8.69 14.0763C8.5 15.5013 8.5 17.32 8.5 19.6175V19.7575C8.5 22.055 8.5 23.875 8.69125 25.2987C8.88875 26.7638 9.30375 27.95 10.2387 28.8862C11.175 29.8212 12.3613 30.2362 13.8263 30.4338C15.2513 30.625 17.07 30.625 19.3675 30.625H22.0075C24.305 30.625 26.125 30.625 27.5487 30.4338C29.0138 30.2362 30.2 29.8212 31.1362 28.8862C31.3853 28.6364 31.6058 28.3597 31.7938 28.0612C32.3563 27.1612 32.4237 26.0588 32.4237 24.9987L32.2362 25H28.7687C25.93 25 23.5 22.83 23.5 20C23.5 17.17 25.93 15 28.7687 15H32.235C32.3 15 32.365 15 32.425 15.0025Z" fill="#FF9900"/>
<path d="M56.14 13.04V21.68C56.14 22.6267 56.3867 23.3533 56.88 23.86C57.3733 24.3533 58.0667 24.6 58.96 24.6C59.8667 24.6 60.5667 24.3533 61.06 23.86C61.5533 23.3533 61.8 22.6267 61.8 21.68V13.04H64.62V21.66C64.62 22.8467 64.36 23.8533 63.84 24.68C63.3333 25.4933 62.6467 26.1067 61.78 26.52C60.9267 26.9333 59.9733 27.14 58.92 27.14C57.88 27.14 56.9333 26.9333 56.08 26.52C55.24 26.1067 54.5733 25.4933 54.08 24.68C53.5867 23.8533 53.34 22.8467 53.34 21.66V13.04H56.14ZM79.2653 27H76.4653L70.1253 17.42V27H67.3253V13.02H70.1253L76.4653 22.62V13.02H79.2653V27ZM84.8323 13.04V27H82.0323V13.04H84.8323ZM106.259 13.04L102.359 27H99.0588L96.4388 17.06L93.6988 27L90.4188 27.02L86.6588 13.04H89.6588L92.1188 23.88L94.9588 13.04H98.0788L100.759 23.82L103.239 13.04H106.259ZM116.647 24.34H111.087L110.167 27H107.227L112.247 13.02H115.507L120.527 27H117.567L116.647 24.34ZM115.887 22.1L113.867 16.26L111.847 22.1H115.887ZM125.203 24.78H129.803V27H122.403V13.04H125.203V24.78ZM141.083 13.04V15.3H137.363V27H134.563V15.3H130.843V13.04H141.083Z" fill="white"/>
</svg>
