<svg width="33" height="51" viewBox="0 0 33 51" fill="none" xmlns="http://www.w3.org/2000/svg">
<path d="M32.9009 12.3878V16.0824C32.9009 16.4205 32.7909 16.6982 32.5711 16.9155C32.3513 17.1328 32.0704 17.2415 31.7284 17.2415H25.5733C25.0115 20.7188 23.4361 23.544 20.847 25.7173C18.2579 27.8906 14.8872 29.2188 10.7349 29.7017C14.8139 34 20.4195 40.4716 27.5517 49.1165C27.8937 49.5028 27.9425 49.9133 27.6983 50.348C27.5029 50.7827 27.1487 51 26.6358 51H19.4914C19.1006 51 18.7953 50.8551 18.5754 50.5653C11.1013 41.7031 5.0194 34.8089 0.329741 29.8828C0.109914 29.6655 0 29.3999 0 29.0859V24.4858C0 24.1719 0.11602 23.9002 0.34806 23.6708C0.580101 23.4414 0.854885 23.3267 1.17241 23.3267H5.27586C8.5 23.3267 11.0952 22.8075 13.0614 21.7692C15.0277 20.7308 16.2795 19.2216 16.8168 17.2415H1.17241C0.83046 17.2415 0.549569 17.1328 0.329741 16.9155C0.109914 16.6982 0 16.4205 0 16.0824V12.3878C0 12.0497 0.109914 11.772 0.329741 11.5547C0.549569 11.3374 0.83046 11.2287 1.17241 11.2287H16.3039C14.9116 8.5 11.6386 7.13565 6.48491 7.13565H1.17241C0.854885 7.13565 0.580101 7.02095 0.34806 6.79155C0.11602 6.56214 0 6.29048 0 5.97656V1.15909C0 0.821023 0.109914 0.543324 0.329741 0.325994C0.549569 0.108665 0.83046 0 1.17241 0H31.6552C31.9971 0 32.278 0.108665 32.4978 0.325994C32.7177 0.543324 32.8276 0.821023 32.8276 1.15909V4.85369C32.8276 5.19176 32.7177 5.46946 32.4978 5.68679C32.278 5.90412 31.9971 6.01278 31.6552 6.01278H23.1185C24.2665 7.4858 25.0481 9.22443 25.4634 11.2287H31.7284C32.0704 11.2287 32.3513 11.3374 32.5711 11.5547C32.7909 11.772 32.9009 12.0497 32.9009 12.3878Z" fill="#9E9E9E"/>
</svg>
