<svg width="24" height="24" viewBox="0 0 24 24" fill="none" xmlns="http://www.w3.org/2000/svg">
<path fill-rule="evenodd" clip-rule="evenodd" d="M12.67 2.21698L21.17 6.96698C21.4195 7.09155 21.6294 7.28321 21.776 7.52045C21.9226 7.75768 22.0002 8.0311 22 8.30998V9.74998C22 10.44 21.44 11 20.75 11H20V19H21C21.2652 19 21.5196 19.1053 21.7071 19.2929C21.8946 19.4804 22 19.7348 22 20C22 20.2652 21.8946 20.5196 21.7071 20.7071C21.5196 20.8946 21.2652 21 21 21H3C2.73478 21 2.48043 20.8946 2.29289 20.7071C2.10536 20.5196 2 20.2652 2 20C2 19.7348 2.10536 19.4804 2.29289 19.2929C2.48043 19.1053 2.73478 19 3 19H4V11H3.25C2.56 11 2 10.44 2 9.74998V8.30998C2 7.78798 2.27 7.30798 2.706 7.03598L11.329 2.21698C11.5373 2.11278 11.7671 2.05853 12 2.05853C12.2329 2.05853 12.4617 2.11278 12.67 2.21698ZM17 11H7V19H9V13H11V19H13V13H15V19H17V11ZM12 5.99998C11.7348 5.99998 11.4804 6.10534 11.2929 6.29288C11.1054 6.48041 11 6.73477 11 6.99998C11 7.2652 11.1054 7.51955 11.2929 7.70709C11.4804 7.89462 11.7348 7.99998 12 7.99998C12.2652 7.99998 12.5196 7.89462 12.7071 7.70709C12.8946 7.51955 13 7.2652 13 6.99998C13 6.73477 12.8946 6.48041 12.7071 6.29288C12.5196 6.10534 12.2652 5.99998 12 5.99998Z" fill="white"/>
</svg>
