<svg width="18" height="21" viewBox="0 0 18 21" fill="none" xmlns="http://www.w3.org/2000/svg">
<path d="M2.471 1.42001C2.42861 2.12965 2.53271 2.84042 2.77683 3.5081C3.02095 4.17578 3.39987 4.78607 3.89 5.30101C2.93736 5.57415 2.08447 6.11788 1.43479 6.86625C0.785121 7.61462 0.366598 8.53544 0.230004 9.51701C-0.0993801 11.8725 0.383849 14.27 1.6 16.314L1.95 16.904C1.96327 16.9257 1.97762 16.9467 1.993 16.967L3.409 18.873C3.70892 19.277 4.09328 19.6107 4.53533 19.851C4.97737 20.0913 5.46648 20.2323 5.96859 20.2643C6.47069 20.2963 6.97374 20.2184 7.4427 20.0362C7.91166 19.8539 8.33526 19.5717 8.684 19.209C8.72478 19.1666 8.7737 19.1329 8.82782 19.1098C8.88195 19.0868 8.94017 19.0749 8.999 19.0749C9.05783 19.0749 9.11606 19.0868 9.17018 19.1098C9.22431 19.1329 9.27323 19.1666 9.314 19.209C9.66275 19.5717 10.0864 19.8539 10.5553 20.0362C11.0243 20.2184 11.5273 20.2963 12.0294 20.2643C12.5315 20.2323 13.0206 20.0913 13.4627 19.851C13.9047 19.6107 14.2891 19.277 14.589 18.873L16.005 16.966C16.0201 16.9457 16.0341 16.9247 16.047 16.903L16.398 16.313C17.6147 14.2699 18.099 11.8732 17.771 9.51801C17.6742 8.82402 17.4359 8.1573 17.071 7.5591C16.7061 6.96091 16.2223 6.44399 15.6496 6.04034C15.0768 5.63669 14.4273 5.3549 13.7412 5.21242C13.0551 5.06994 12.3471 5.0698 11.661 5.21201L9.76 5.60601H9.757C9.787 4.82601 9.909 3.98601 10.148 3.26801C10.438 2.40001 10.84 1.87801 11.288 1.69201C11.4717 1.61536 11.6174 1.46889 11.693 1.28482C11.7687 1.10076 11.7682 0.89417 11.6915 0.710507C11.6149 0.526845 11.4684 0.381153 11.2843 0.305482C11.1003 0.229811 10.8937 0.23036 10.71 0.307007C9.658 0.746007 9.06 1.78701 8.725 2.79301L8.679 2.93501C8.43274 2.45916 8.11468 2.02406 7.736 1.64501C7.21738 1.1258 6.59438 0.722692 5.90825 0.462375C5.22211 0.202058 4.48851 0.0904727 3.756 0.135007C3.42172 0.154249 3.10612 0.295513 2.86907 0.532005C2.63203 0.768497 2.49003 1.08377 2.47 1.41801L2.471 1.42001ZM5.397 9.23501C5.05 9.30401 4.732 9.54801 4.533 10.013C4.33 10.487 4.258 11.19 4.477 12.067C4.52202 12.2588 4.48977 12.4606 4.3872 12.6288C4.28463 12.7971 4.11999 12.9182 3.92887 12.966C3.73774 13.0138 3.53547 12.9845 3.36578 12.8844C3.19609 12.7843 3.0726 12.6214 3.022 12.431C2.742 11.309 2.795 10.261 3.154 9.42201C3.517 8.57501 4.199 7.94401 5.103 7.76401C5.20097 7.74088 5.3026 7.73771 5.40182 7.75469C5.50104 7.77167 5.59583 7.80845 5.68054 7.86284C5.76524 7.91723 5.83813 7.98812 5.89486 8.07127C5.95159 8.15443 5.991 8.24815 6.01075 8.34686C6.03049 8.44557 6.03016 8.54724 6.00977 8.64582C5.98939 8.7444 5.94937 8.83786 5.8921 8.92065C5.83483 9.00343 5.76148 9.07384 5.67642 9.12768C5.59136 9.18151 5.49633 9.21867 5.397 9.23501Z" fill="white"/>
</svg>
