<svg width="24" height="24" viewBox="0 0 24 24" fill="none" xmlns="http://www.w3.org/2000/svg">
<path fill-rule="evenodd" clip-rule="evenodd" d="M14.194 2.885C16.494 2.586 18.652 3.095 19.839 4.282C20.629 5.073 21.019 5.993 20.999 7.002C20.982 7.963 20.594 8.896 20.061 9.766C19.299 11.011 18.109 12.329 16.791 13.681L16.062 14.421L14.446 16.038L13.755 16.72C12.377 18.066 11.033 19.286 9.766 20.061C8.896 20.594 7.963 20.981 7.002 21C5.993 21.02 5.073 20.63 4.282 19.839C3.095 18.652 2.586 16.495 2.885 14.194C3.192 11.834 4.356 9.159 6.757 6.757C9.159 4.357 11.835 3.192 14.194 2.885ZM5.691 11.665C5.35125 12.3928 5.10206 13.1595 4.949 13.948C5.369 14.308 5.868 14.586 6.441 14.778C6.69269 14.8619 6.96742 14.8425 7.20475 14.7238C7.44208 14.6052 7.62256 14.3972 7.7065 14.1455C7.79044 13.8938 7.77096 13.6191 7.65235 13.3818C7.53373 13.1444 7.32569 12.9639 7.074 12.88C6.407 12.658 5.962 12.268 5.691 11.664V11.665ZM8.691 7.679C8.18696 8.13318 7.71702 8.62384 7.285 9.147C7.479 9.398 7.691 9.636 7.906 9.851C8.491 10.435 9.239 10.996 9.976 11.241C10.2183 11.3228 10.4826 11.3087 10.7148 11.2016C10.947 11.0945 11.1293 10.9025 11.2243 10.6651C11.3193 10.4277 11.3198 10.163 11.2256 9.92526C11.1314 9.68755 10.9498 9.49493 10.718 9.387L10.609 9.344C10.286 9.237 9.797 8.914 9.321 8.437C9.08701 8.20529 8.87602 7.95143 8.691 7.679ZM13.111 5.149C12.493 5.327 11.852 5.579 11.204 5.917C11.724 6.764 12.503 7.369 13.512 7.706C13.6371 7.74958 13.7695 7.76789 13.9017 7.75986C14.0339 7.75182 14.1632 7.71761 14.2821 7.65921C14.4009 7.6008 14.507 7.51937 14.5941 7.41964C14.6813 7.3199 14.7477 7.20385 14.7897 7.07822C14.8316 6.9526 14.8481 6.81989 14.8383 6.68782C14.8286 6.55575 14.7926 6.42693 14.7327 6.30885C14.6727 6.19077 14.5899 6.08578 14.489 5.99998C14.3881 5.91417 14.2712 5.84926 14.145 5.809C13.711 5.664 13.371 5.449 13.111 5.149Z" fill="white"/>
</svg>
