<svg width="19" height="19" viewBox="0 0 19 19" fill="none" xmlns="http://www.w3.org/2000/svg">
<path d="M3.44 5.96L3.96 5.43C4.54 4.85 5.5 4.85 6.1 5.47L6.12 5.5C6.61 6 7.26 6.24 7.97 6.31C8.94 6.4 9.88 6.92 10.5 7.86C11.18 8.94 11.17 10.38 10.46 11.45C10.1922 11.8735 9.83209 12.2309 9.4066 12.4955C8.98111 12.7601 8.50129 12.925 8.00304 12.9779C7.50479 13.0308 7.00102 12.9703 6.52946 12.801C6.0579 12.6316 5.63075 12.3578 5.28 12C4.72 11.45 4.4 10.74 4.32 10C4.24 9.27 3.95 8.58 3.44 8.07C2.86 7.5 2.86 6.54 3.44 5.96ZM7.64 14C6.47 14 5.38 13.55 4.57 12.72C3.87 12 3.43 11.1 3.32 10.12C3.29 9.82 3.2 9.43 2.96 9.07C2.36 9.9 2 10.9 2 12C2 13.64 2.8 15.09 4.03 16H17V15C17 11.4 14.61 8.35 11.34 7.35C12.23 8.75 12.21 10.62 11.3 12C10.5 13.25 9.12 14 7.64 14ZM12.78 5.56H14.05C14.92 5.56 15.68 6.17 15.68 7.26V8H16.93V7C16.93 5.5 15.6 4.36 14.05 4.36H12.78C11.95 4.36 11.24 3.54 11.24 2.7C11.24 1.86 11.95 1.24 12.78 1.24V0C11.24 0 10 1.24 10 2.78C10 4.32 11.24 5.56 12.78 5.56ZM2.5 5.55C2.56 5.45 2.64 5.35 2.73 5.25L3.25 4.73C3.34 4.64 3.44 4.57 3.54 4.5L2.13 3.07C2.27 2.8 2.22 2.45 2 2.22C1.8568 2.0806 1.66485 2.0026 1.465 2.0026C1.26516 2.0026 1.0732 2.0806 0.930002 2.22C0.790002 2.36 0.720002 2.53 0.710002 2.71C0.530002 2.72 0.360002 2.79 0.220002 2.93C-0.0699975 3.22 -0.0699975 3.7 0.220002 4C0.450002 4.22 0.790002 4.27 1.07 4.13L2.5 5.55ZM16.39 2.39C16.9 1.88 17.22 1.19 17.22 0.42H15.97C15.97 1.25 15.27 1.95 14.44 1.95V3.19C16.3 3.19 17.76 4.71 17.76 6.57V9H19V6.57C19.005 5.69771 18.7624 4.8419 18.3004 4.10199C17.8384 3.36208 17.1759 2.76843 16.39 2.39ZM3 19H17C18.11 19 19 18.11 19 17H1C1 17.5304 1.21072 18.0391 1.58579 18.4142C1.96086 18.7893 2.46957 19 3 19Z" fill="white"/>
</svg>
