<svg width="24" height="24" viewBox="0 0 24 24" fill="none" xmlns="http://www.w3.org/2000/svg">
<path d="M8.51 12.48C8.31222 12.48 8.11888 12.5386 7.95443 12.6485C7.78998 12.7584 7.66181 12.9146 7.58612 13.0973C7.51043 13.28 7.49063 13.4811 7.52921 13.6751C7.5678 13.8691 7.66304 14.0473 7.80289 14.1871C7.94274 14.327 8.12093 14.4222 8.31491 14.4608C8.50889 14.4994 8.70995 14.4796 8.89268 14.4039C9.07541 14.3282 9.23159 14.2 9.34147 14.0356C9.45135 13.8711 9.51 13.6778 9.51 13.48C9.51 13.2148 9.40464 12.9604 9.2171 12.7729C9.02957 12.5854 8.77521 12.48 8.51 12.48ZM8.51 8C8.31222 8 8.11888 8.05865 7.95443 8.16853C7.78998 8.27841 7.66181 8.43459 7.58612 8.61732C7.51043 8.80004 7.49063 9.00111 7.52921 9.19509C7.5678 9.38907 7.66304 9.56725 7.80289 9.70711C7.94274 9.84696 8.12093 9.9422 8.31491 9.98078C8.50889 10.0194 8.70995 9.99957 8.89268 9.92388C9.07541 9.84819 9.23159 9.72002 9.34147 9.55557C9.45135 9.39112 9.51 9.19778 9.51 9C9.51 8.73478 9.40464 8.48043 9.2171 8.29289C9.02957 8.10536 8.77521 8 8.51 8ZM12 10C11.7348 10 11.4804 10.1054 11.2929 10.2929C11.1054 10.4804 11 10.7348 11 11V12C11 12.2652 11.1054 12.5196 11.2929 12.7071C11.4804 12.8946 11.7348 13 12 13C12.2652 13 12.5196 12.8946 12.7071 12.7071C12.8946 12.5196 13 12.2652 13 12V11C13 10.7348 12.8946 10.4804 12.7071 10.2929C12.5196 10.1054 12.2652 10 12 10ZM20.5 8.57C20.155 8.37151 19.774 8.24365 19.3791 8.19386C18.9843 8.14408 18.5834 8.17336 18.2 8.28C17.8009 8.38689 17.4293 8.57782 17.11 8.84L5.51 2.13C5.35798 2.04223 5.18553 1.99603 5.01 1.99603C4.83446 1.99603 4.66202 2.04223 4.51 2.13C4.35553 2.21683 4.22691 2.34314 4.1373 2.496C4.04769 2.64887 4.0003 2.8228 4 3V16.17C3.40985 16.3691 2.89817 16.7504 2.53872 17.259C2.17927 17.7676 1.99063 18.3773 2 19C1.99972 19.782 2.30478 20.5332 2.85021 21.0935C3.39563 21.6539 4.13829 21.9791 4.92 22H5.5C8.77673 21.9923 11.9931 21.1177 14.8225 19.465C17.6519 17.8123 19.9937 15.4404 21.61 12.59C21.9833 11.908 22.0772 11.1077 21.872 10.3578C21.6668 9.60789 21.1785 8.96692 20.51 8.57H20.5ZM6 4.73L15.89 10.44C14.7928 12.0772 13.326 13.4335 11.608 14.3993C9.88999 15.3651 7.96896 15.9135 6 16V4.73ZM19.87 11.61C18.3855 14.2257 16.2174 16.3883 13.598 17.8662C10.9786 19.3441 8.00648 20.0817 5 20C4.73478 20 4.48043 19.8946 4.29289 19.7071C4.10535 19.5196 4 19.2652 4 19C3.99921 18.866 4.02537 18.7332 4.0769 18.6095C4.12844 18.4859 4.20431 18.3738 4.3 18.28C4.48786 18.0989 4.73907 17.9984 5 18H5.51C8.07771 17.999 10.5991 17.3161 12.8164 16.0212C15.0337 14.7263 16.8674 12.8658 18.13 10.63C18.1907 10.5203 18.2736 10.4245 18.3735 10.3487C18.4734 10.273 18.588 10.2189 18.71 10.19C18.9621 10.1208 19.2314 10.1531 19.46 10.28C19.6894 10.4033 19.8617 10.6113 19.9401 10.8597C20.0186 11.1081 19.997 11.3773 19.88 11.61H19.87Z" fill="white"/>
</svg>
