<svg width="21" height="22" viewBox="0 0 21 22" fill="none" xmlns="http://www.w3.org/2000/svg">
<path fill-rule="evenodd" clip-rule="evenodd" d="M5.38617 0C4.58517 0 4.03617 1.49012e-08 3.54617 0.133C3.03904 0.272182 2.56685 0.516472 2.16027 0.850006C1.75369 1.18354 1.4218 1.59886 1.18617 2.069C0.959168 2.521 0.852168 3.06 0.695168 3.846L0.0751679 6.944C-0.0346351 7.48708 -0.0240267 8.04764 0.106246 8.58618C0.236518 9.12472 0.483286 9.62815 0.829168 10.061V12.806C0.829168 14.644 0.829168 16.1 0.982168 17.239C1.14017 18.411 1.47217 19.36 2.22017 20.109C2.96817 20.857 3.91717 21.189 5.09017 21.347C6.22917 21.5 7.68517 21.5 9.52217 21.5H10.6352C12.4732 21.5 13.9292 21.5 15.0682 21.347C16.2402 21.189 17.1892 20.857 17.9382 20.109C18.6862 19.36 19.0182 18.411 19.1762 17.239C19.3292 16.099 19.3292 14.644 19.3292 12.806V10.062C19.675 9.62895 19.9217 9.12531 20.0518 8.58659C20.1819 8.04787 20.1923 7.48717 20.0822 6.944L19.4622 3.846C19.3062 3.06 19.1982 2.521 18.9722 2.069C18.7364 1.59876 18.4044 1.18337 17.9976 0.84983C17.5909 0.51629 17.1185 0.272057 16.6112 0.133C16.1222 1.49012e-08 15.5732 0 14.7712 0H5.38617ZM16.3472 11.5C16.8561 11.5009 17.3601 11.3996 17.8292 11.202V12.75C17.8292 14.657 17.8272 16.012 17.6892 17.04C17.5542 18.045 17.3002 18.625 16.8772 19.048C16.4542 19.471 15.8742 19.725 14.8672 19.86C14.3567 19.9233 13.8434 19.9614 13.3292 19.974V17.218C13.3292 16.778 13.3292 16.398 13.3012 16.088C13.2712 15.758 13.2052 15.432 13.0272 15.125C12.8299 14.7829 12.5461 14.4987 12.2042 14.301C11.8972 14.124 11.5712 14.058 11.2412 14.028C10.9312 14 10.5512 14 10.1112 14H10.0462C9.60617 14 9.22717 14 8.91617 14.028C8.58617 14.058 8.26117 14.124 7.95417 14.301C7.61191 14.4985 7.32771 14.7827 7.13017 15.125C6.95317 15.432 6.88717 15.758 6.85717 16.087C6.82917 16.399 6.82917 16.778 6.82917 17.217V19.974C6.31427 19.9614 5.8003 19.9234 5.28917 19.86C4.28417 19.725 3.70417 19.471 3.28117 19.048C2.85717 18.625 2.60417 18.045 2.46917 17.039C2.33017 16.012 2.32917 14.657 2.32917 12.75V11.202C3.12828 11.5396 4.01873 11.5942 4.85308 11.3567C5.68744 11.1192 6.41566 10.6038 6.91717 9.896C7.28045 10.3937 7.75627 10.7985 8.3058 11.0772C8.85532 11.356 9.46298 11.5009 10.0792 11.5C10.6954 11.5009 11.303 11.356 11.8525 11.0772C12.4021 10.7985 12.8779 10.3937 13.2412 9.896C13.5931 10.392 14.0588 10.7965 14.5992 11.0756C15.1396 11.3546 15.739 11.5002 16.3472 11.5ZM8.32917 19.998C8.71717 20 9.13317 20 9.57917 20H10.5792C11.0252 20 11.4402 20 11.8292 19.998V17.25C11.8292 16.769 11.8282 16.458 11.8072 16.223C11.7872 15.998 11.7522 15.916 11.7282 15.875C11.6624 15.7612 11.5679 15.6668 11.4542 15.601C11.4132 15.577 11.3312 15.543 11.1062 15.522C10.7643 15.501 10.4217 15.4936 10.0792 15.5C9.59817 15.5 9.28717 15.5 9.05217 15.522C8.82617 15.542 8.74517 15.577 8.70417 15.601C8.59004 15.6666 8.4952 15.7611 8.42917 15.875C8.40617 15.915 8.37117 15.998 8.35117 16.223C8.33017 16.458 8.32917 16.769 8.32917 17.25V19.998ZM6.74917 1.5H5.49717C4.54317 1.5 4.21217 1.507 3.94417 1.58C3.63994 1.66344 3.35667 1.80992 3.11272 2.00994C2.86877 2.20995 2.66961 2.45903 2.52817 2.741C2.40317 2.99 2.33217 3.312 2.14517 4.248L1.54717 7.238C1.48343 7.54564 1.48313 7.86306 1.54627 8.17082C1.6094 8.47859 1.73466 8.77024 1.91437 9.02795C2.09408 9.28565 2.32447 9.50398 2.59146 9.6696C2.85844 9.83521 3.1564 9.94462 3.46711 9.99114C3.77782 10.0377 4.09476 10.0203 4.39854 9.94014C4.70232 9.85998 4.98655 9.71869 5.23385 9.52492C5.48116 9.33115 5.68634 9.08897 5.83684 8.81319C5.98734 8.5374 6.08001 8.23382 6.10917 7.921L6.17817 7.235L6.18217 7.193L6.75117 1.5M7.67217 7.375L8.26017 1.5H11.9022L12.4862 7.342C12.5189 7.67627 12.4816 8.01369 12.3766 8.33275C12.2717 8.6518 12.1014 8.94547 11.8766 9.19504C11.6519 9.44461 11.3775 9.64459 11.0712 9.78223C10.7648 9.91987 10.4331 9.99215 10.0972 9.99445C9.76138 9.99676 9.42872 9.92903 9.12049 9.79561C8.81226 9.66218 8.53523 9.46598 8.30705 9.21951C8.07888 8.97305 7.90457 8.68173 7.79526 8.36415C7.68595 8.04657 7.64403 7.70969 7.67217 7.375ZM16.2162 1.58C15.9482 1.507 15.6172 1.5 14.6632 1.5H13.4092L14.0522 7.92C14.0823 8.23192 14.1756 8.53445 14.3263 8.80916C14.4771 9.08387 14.6822 9.32501 14.9292 9.5179C15.1762 9.7108 15.4598 9.8514 15.7629 9.93115C16.0659 10.0109 16.382 10.0281 16.692 9.98178C17.0019 9.93544 17.2991 9.8265 17.5656 9.66159C17.8321 9.49668 18.0622 9.27926 18.2419 9.02256C18.4217 8.76586 18.5473 8.47526 18.6111 8.16846C18.6749 7.86166 18.6756 7.54508 18.6132 7.238L18.0162 4.248C17.8282 3.312 17.7572 2.99 17.6332 2.741C17.4916 2.45892 17.2923 2.20978 17.0482 2.00976C16.804 1.80974 16.5206 1.66332 16.2162 1.58Z" fill="white"/>
</svg>
