<svg width="22" height="22" viewBox="0 0 22 22" fill="none" xmlns="http://www.w3.org/2000/svg">
<path fill-rule="evenodd" clip-rule="evenodd" d="M11.8879 8.83994L16.0443 0.523939C16.1232 0.366474 16.2444 0.234069 16.3942 0.141538C16.5441 0.0490069 16.7167 0 16.8929 0C17.069 0 17.2416 0.0490069 17.3915 0.141538C17.5414 0.234069 17.6625 0.366474 17.7414 0.523939L21.8994 8.83994C21.9717 8.98461 22.0059 9.14536 21.9986 9.30693C21.9913 9.46849 21.9429 9.62552 21.8579 9.76311C21.7728 9.9007 21.6541 10.0143 21.5129 10.0931C21.3716 10.1719 21.2126 10.2133 21.0509 10.2134H12.7349C12.5731 10.2133 12.4141 10.1719 12.2729 10.0931C12.1316 10.0143 12.0129 9.9007 11.9279 9.76311C11.8429 9.62552 11.7944 9.46849 11.7871 9.30693C11.7799 9.14536 11.8156 8.98461 11.8879 8.83994ZM0.785714 0.784796C0.57733 0.784796 0.37748 0.867576 0.23013 1.01493C0.0827804 1.16228 0 1.36213 0 1.57051L0 9.42765C0 9.63604 0.0827804 9.83589 0.23013 9.98324C0.37748 10.1306 0.57733 10.2134 0.785714 10.2134H8.64286C8.85124 10.2134 9.05109 10.1306 9.19844 9.98324C9.34579 9.83589 9.42857 9.63604 9.42857 9.42765V1.57051C9.42857 1.36213 9.34579 1.16228 9.19844 1.01493C9.05109 0.867576 8.85124 0.784796 8.64286 0.784796H0.785714ZM9.42857 17.2848C9.42857 18.5351 8.93189 19.7342 8.04779 20.6183C7.16369 21.5024 5.96459 21.9991 4.71429 21.9991C3.46398 21.9991 2.26488 21.5024 1.38078 20.6183C0.496682 19.7342 0 18.5351 0 17.2848C0 16.0345 0.496682 14.8354 1.38078 13.9513C2.26488 13.0672 3.46398 12.5705 4.71429 12.5705C5.96459 12.5705 7.16369 13.0672 8.04779 13.9513C8.93189 14.8354 9.42857 16.0345 9.42857 17.2848ZM13.3571 19.6419C13.0446 19.6419 12.7448 19.7661 12.5238 19.9871C12.3027 20.2082 12.1786 20.5079 12.1786 20.8205C12.1786 21.1331 12.3027 21.4329 12.5238 21.6539C12.7448 21.8749 13.0446 21.9991 13.3571 21.9991H20.4286C20.7411 21.9991 21.0409 21.8749 21.2619 21.6539C21.483 21.4329 21.6071 21.1331 21.6071 20.8205C21.6071 20.5079 21.483 20.2082 21.2619 19.9871C21.0409 19.7661 20.7411 19.6419 20.4286 19.6419H13.3571ZM12.1786 17.2848C12.1786 16.9722 12.3027 16.6724 12.5238 16.4514C12.7448 16.2304 13.0446 16.1062 13.3571 16.1062H20.4286C20.7411 16.1062 21.0409 16.2304 21.2619 16.4514C21.483 16.6724 21.6071 16.9722 21.6071 17.2848C21.6071 17.5974 21.483 17.8971 21.2619 18.1182C21.0409 18.3392 20.7411 18.4634 20.4286 18.4634H13.3571C13.0446 18.4634 12.7448 18.3392 12.5238 18.1182C12.3027 17.8971 12.1786 17.5974 12.1786 17.2848ZM13.3571 12.5705C13.0446 12.5705 12.7448 12.6947 12.5238 12.9157C12.3027 13.1367 12.1786 13.4365 12.1786 13.7491C12.1786 14.0617 12.3027 14.3614 12.5238 14.5825C12.7448 14.8035 13.0446 14.9277 13.3571 14.9277H20.4286C20.7411 14.9277 21.0409 14.8035 21.2619 14.5825C21.483 14.3614 21.6071 14.0617 21.6071 13.7491C21.6071 13.4365 21.483 13.1367 21.2619 12.9157C21.0409 12.6947 20.7411 12.5705 20.4286 12.5705H13.3571Z" fill="white"/>
</svg>
