<svg width="18" height="18" viewBox="0 0 18 18" fill="none" xmlns="http://www.w3.org/2000/svg">
<path fill-rule="evenodd" clip-rule="evenodd" d="M6 5C6 4.20435 6.31607 3.44129 6.87868 2.87868C7.44129 2.31607 8.20435 2 9 2C9.79565 2 10.5587 2.31607 11.1213 2.87868C11.6839 3.44129 12 4.20435 12 5H6ZM4 5C4 3.67392 4.52678 2.40215 5.46446 1.46447C6.40215 0.526784 7.67391 0 9 0C10.3261 0 11.5978 0.526784 12.5355 1.46447C13.4732 2.40215 14 3.67392 14 5H17C17.1389 4.99999 17.2763 5.02893 17.4034 5.08496C17.5305 5.14099 17.6446 5.22289 17.7383 5.32544C17.832 5.42799 17.9033 5.54894 17.9477 5.68058C17.992 5.81221 18.0085 5.95165 17.996 6.09L17.161 15.272C17.0931 16.0174 16.7491 16.7105 16.1965 17.2152C15.6438 17.7199 14.9224 17.9998 14.174 18H3.826C3.07755 17.9998 2.35619 17.7199 1.80353 17.2152C1.25088 16.7105 0.906857 16.0174 0.838997 15.272L0.00399729 6.09C-0.00850498 5.95165 0.00795479 5.81221 0.0523274 5.68058C0.0966999 5.54894 0.168012 5.42799 0.261718 5.32544C0.355423 5.22289 0.469467 5.14099 0.596579 5.08496C0.723691 5.02893 0.861083 4.99999 0.999997 5H4Z" fill="white"/>
</svg>
