<svg width="24" height="24" viewBox="0 0 24 24" fill="none" xmlns="http://www.w3.org/2000/svg">
<path d="M12 23C18.0753 23 23 18.9371 23 13.925C23 10.3819 20.5388 7.43554 16.95 5.94119L15.025 6.77499L15.3 9.79999L11.725 8.69999L8.15 9.79999V6.77499L6.5 5.94119C3.2121 7.51034 1 10.5661 1 13.925C1 18.9371 5.9247 23 12 23Z" fill="white" stroke="white" stroke-linecap="round" stroke-linejoin="round"/>
<path d="M11.725 1L13.82 3.81435L18.6 4.2505L15.1147 6.76565L16.125 10.35L11.725 8.7L7.32501 10.35L8.33536 6.76565L4.85001 4.2505L9.63006 3.81435L11.725 1Z" stroke="white" stroke-linecap="round" stroke-linejoin="round"/>
</svg>
