<svg width="14" height="20" viewBox="0 0 14 20" fill="none" xmlns="http://www.w3.org/2000/svg">
<path d="M6 4H8V2H6V4ZM7 10C5.73333 10 4.525 9.73733 3.375 9.212C2.225 8.68667 1.1 8.09933 0 7.45V6C0 5.45 0.196 4.97933 0.588 4.588C0.98 4.19667 1.45067 4.00067 2 4H4V1C4 0.716667 4.096 0.479333 4.288 0.288C4.48 0.0966668 4.71733 0.000666667 5 0H9C9.28333 0 9.521 0.0960001 9.713 0.288C9.905 0.48 10.0007 0.717333 10 1V4H12C12.55 4 13.021 4.196 13.413 4.588C13.805 4.98 14.0007 5.45067 14 6V7.45C12.9 8.1 11.775 8.68767 10.625 9.213C9.475 9.73833 8.26667 10.0007 7 10ZM2 19C1.45 19 0.979333 18.8043 0.588 18.413C0.196666 18.0217 0.000666667 17.5507 0 17V9.7C0.933333 10.2667 1.896 10.75 2.888 11.15C3.88 11.55 4.91733 11.8167 6 11.95V12C6 12.2833 6.096 12.521 6.288 12.713C6.48 12.905 6.71733 13.0007 7 13C7.28333 13 7.521 12.904 7.713 12.712C7.905 12.52 8.00067 12.2827 8 12V11.95C9.08333 11.8167 10.121 11.55 11.113 11.15C12.105 10.75 13.0673 10.2667 14 9.7V17C14 17.55 13.8043 18.021 13.413 18.413C13.0217 18.805 12.5507 19.0007 12 19C12 19.2833 11.904 19.521 11.712 19.713C11.52 19.905 11.2827 20.0007 11 20C10.7333 20 10.546 19.879 10.438 19.637C10.33 19.395 10.184 19.1827 10 19H4C4 19.2833 3.904 19.521 3.712 19.713C3.52 19.905 3.28267 20.0007 3 20C2.73333 20 2.546 19.879 2.438 19.637C2.33 19.395 2.184 19.1827 2 19Z" fill="white"/>
</svg>
